<svg xmlns="http://www.w3.org/2000/svg" xmlns:xlink="http://www.w3.org/1999/xlink" viewBox="0 0 1200 650" font-family="'Segoe UI','Helvetica Neue',Arial,sans-serif">
  <defs>
    <marker id="arrow" markerWidth="8" markerHeight="6" refX="8" refY="3" orient="auto">
      <path d="M0,0 L8,3 L0,6 Z" fill="#64748b"/>
    </marker>
    <marker id="arrow-orange" markerWidth="8" markerHeight="6" refX="8" refY="3" orient="auto">
      <path d="M0,0 L8,3 L0,6 Z" fill="#f97316"/>
    </marker>
    <filter id="shadow" x="-2%" y="-2%" width="104%" height="104%">
      <feDropShadow dx="1" dy="1" stdDeviation="2" flood-opacity="0.08"/>
    </filter>
  </defs>

  <!-- Background -->
  <rect width="1200" height="650" fill="#ffffff" rx="16" ry="16"/>
  <rect x="2" y="2" width="1196" height="646" fill="none" stroke="#3b82f6" stroke-width="2.5" rx="16" ry="16"/>

  <!-- ==================== HEADER ==================== -->
  <g transform="translate(16.0,12.0) scale(1.1667,1.1667)">
    <path d="M13.983 11.078h2.119a.186.186 0 00.186-.185V9.006a.186.186 0 00-.186-.186h-2.119a.185.185 0 00-.185.185v1.888c0 .102.083.185.185.185m-2.954-5.43h2.118a.186.186 0 00.186-.186V3.574a.186.186 0 00-.186-.185h-2.118a.185.185 0 00-.185.185v1.888c0 .102.082.185.185.185m0 2.716h2.118a.187.187 0 00.186-.186V6.29a.186.186 0 00-.186-.185h-2.118a.185.185 0 00-.185.185v1.887c0 .102.082.185.185.186m-2.93 0h2.12a.186.186 0 00.184-.186V6.29a.185.185 0 00-.185-.185H8.1a.185.185 0 00-.185.185v1.887c0 .102.083.185.185.186m-2.964 0h2.119a.186.186 0 00.185-.186V6.29a.185.185 0 00-.185-.185H5.136a.186.186 0 00-.186.185v1.887c0 .102.084.185.186.186m5.893 2.715h2.118a.186.186 0 00.186-.185V9.006a.186.186 0 00-.186-.186h-2.118a.185.185 0 00-.185.185v1.888c0 .102.082.185.185.185m-2.93 0h2.12a.185.185 0 00.184-.185V9.006a.185.185 0 00-.184-.186h-2.12a.185.185 0 00-.184.185v1.888c0 .102.083.185.185.185m-2.964 0h2.119a.185.185 0 00.185-.185V9.006a.185.185 0 00-.184-.186h-2.12a.186.186 0 00-.186.186v1.887c0 .102.084.185.186.185m-2.92 0h2.12a.185.185 0 00.184-.185V9.006a.185.185 0 00-.184-.186h-2.12a.185.185 0 00-.184.185v1.884c0 .102.082.185.185.185M23.763 9.89c-.065-.051-.672-.51-1.954-.51-.338.001-.676.03-1.01.087-.248-1.7-1.653-2.53-1.716-2.566l-.344-.199-.226.327c-.284.438-.49.922-.612 1.43-.23.97-.09 1.882.403 2.661-.595.332-1.55.413-1.744.42H.751a.751.751 0 00-.75.748 11.376 11.376 0 00.692 4.062c.545 1.428 1.355 2.48 2.41 3.124 1.18.723 3.1 1.137 5.275 1.137.983.003 1.963-.086 2.93-.266a12.248 12.248 0 003.823-1.389c.98-.567 1.86-1.288 2.61-2.136 1.252-1.418 1.998-2.997 2.553-4.4h.221c1.372 0 2.215-.549 2.68-1.009.309-.293.55-.65.707-1.046l.098-.288Z" fill="#2496ED"/>
  </g>
  <text x="50" y="32" font-size="15" font-weight="700" fill="#1e293b">Open-source  |  data-flywheel</text>
  <text x="275" y="32" font-size="11" fill="#94a3b8">On-Premises CV MLOps Architecture</text>

  <!-- ==================== ZONE A: DATA (left) ==================== -->
  <g filter="url(#shadow)">
    <rect x="24" y="100" width="120" height="80" rx="10" fill="#f0fdfa" stroke="#13adc7" stroke-width="1.5"/>
    <g transform="translate(62.0,108.0) scale(1.0000,1.0000)">
    <path d="M0 4.935a.295.295 0 0 1 .09-.223.256.256 0 0 1 .201-.092h3.921c1.608.122 2.808.582 3.912 1.716 1.11 1.135 1.551 2.422 1.692 4.078.135 1.594-.516 2.974-1.62 4.108a5.42 5.42 0 0 1-1.818 1.28 5.316 5.316 0 0 1-2.166.431H.292a.28.28 0 0 1-.202-.092.315.315 0 0 1-.069-.104.322.322 0 0 1-.02-.123V4.935Zm2.508 8.84H4.05c.9 0 1.65-.326 2.244-.973a3.403 3.403 0 0 0 .891-2.39c0-.942-.3-1.737-.89-2.383a2.935 2.935 0 0 0-1.02-.734 2.88 2.88 0 0 0-1.225-.238H2.508zm12.064.062a.32.32 0 0 1 .028.311l-2.324 5.056c-.063.122-.153.18-.273.18h-.162c-.12 0-.21-.06-.276-.184l-2.28-4.993a.317.317 0 0 1 .033-.316 5.136 5.136 0 0 0 .961-3.17c-.002-.088.133-.123.168-.042l1.44 3.236h.098l1.494-3.354c.035-.078.16-.049.16.036 0 1.147.29 2.282.933 3.24zm1.196.728c-1.14-1.128-1.668-2.496-1.668-4.108 0-1.622.525-2.996 1.668-4.133A5.74 5.74 0 0 1 1.91-1.285 5.65 5.65 0 0 1 2.248-.423 5.692 5.692 0 0 1 3.94 1.503c.164.153.167.306.017.453l-1.269 1.31c-.14.128-.279.128-.408 0a3.21 3.21 0 0 0-2.199-.825c-.912 0-1.67.325-2.28.981a3.267 3.267 0 0 0-.87 2.345c0 .908.27 1.68.882 2.321a3.023 3.023 0 0 0 2.286.96 3.255 3.255 0 0 0 2.181-.776c.15-.129.291-.123.42.015l1.272 1.343c.141.141.135.285-.015.435a5.49 5.49 0 0 1-3.957 1.567 5.675 5.675 0 0 1-2.245-.415 5.795 5.795 0 0 1-1.913-1.27z" fill="#13ADC7"/>
  </g>
    <text x="84" y="148" text-anchor="middle" font-size="13" font-weight="600" fill="#0f172a">DVC</text>
    <text x="84" y="168" text-anchor="middle" font-size="10" fill="#64748b">Version Data (S3)</text>
  </g>

  <!-- Arrow: DVC → Pipeline -->
  <line x1="144" y1="140" x2="190" y2="140" stroke="#64748b" stroke-width="1.5" marker-end="url(#arrow)"/>
  <text x="167" y="133" text-anchor="middle" font-size="9" fill="#64748b">Data</text>

  <!-- ==================== ZONE B: ORCHESTRATE (center top) ==================== -->
  <rect x="196" y="62" width="500" height="208" rx="12" fill="none" stroke="#070E10" stroke-width="1.5" stroke-dasharray="6,4"/>
  <!-- Orchestrate title -->
  <g transform="translate(206.0,67.0) scale(0.7500,0.7500)">
    <path d="M12 8.003 4.288 4.002 12 0l7.713 4v8.004L12 16v8l-7.71-4v-8L12 16V8.003Z" fill="#070E10"/>
  </g>
  <text x="228" y="81" font-size="13" font-weight="700" fill="#070E10">Orchestrate</text>
  <text x="315" y="81" font-size="10" fill="#94a3b8">Training Pipeline (Prefect)</text>

  <!-- CleanVision box -->
  <g filter="url(#shadow)">
    <rect x="214" y="100" width="108" height="72" rx="8" fill="#ecfdf5" stroke="#10b981" stroke-width="1.5"/>
    <circle cx="268" cy="120" r="12" fill="#10b981"/>
    <text x="268" y="125" text-anchor="middle" font-size="11" font-weight="700" fill="#fff">CV</text>
    <text x="268" y="148" text-anchor="middle" font-size="12" font-weight="600" fill="#0f172a">CleanVision</text>
    <text x="268" y="162" text-anchor="middle" font-size="10" fill="#64748b">Validate Images</text>
  </g>

  <!-- Arrow: CleanVision → PyTorch -->
  <line x1="322" y1="136" x2="348" y2="136" stroke="#64748b" stroke-width="1.5" marker-end="url(#arrow)"/>

  <!-- PyTorch box -->
  <g filter="url(#shadow)">
    <rect x="354" y="100" width="108" height="72" rx="8" fill="#fff5f5" stroke="#EE4C2C" stroke-width="1.5"/>
    <g transform="translate(396.0,108.0) scale(1.0000,1.0000)">
    <path d="M12.005 0L4.952 7.053a9.865 9.865 0 000 14.022 9.866 9.866 0 0014.022 0c3.984-3.9 3.986-10.205.085-14.023l-1.744 1.743c2.904 2.905 2.904 7.634 0 10.538s-7.634 2.904-10.538 0-2.904-7.634 0-10.538l4.647-4.646.582-.665zm3.568 3.899a1.327 1.327 0 00-1.327 1.327 1.327 1.327 0 001.327 1.328A1.327 1.327 0 0016.9 5.226 1.327 1.327 0 0015.573 3.9z" fill="#EE4C2C"/>
  </g>
    <text x="408" y="148" text-anchor="middle" font-size="12" font-weight="600" fill="#0f172a">PyTorch</text>
    <text x="408" y="162" text-anchor="middle" font-size="10" fill="#64748b">Train Model</text>
  </g>

  <!-- Arrow: PyTorch → Evaluate -->
  <line x1="462" y1="136" x2="488" y2="136" stroke="#64748b" stroke-width="1.5" marker-end="url(#arrow)"/>

  <!-- Evaluate box -->
  <g filter="url(#shadow)">
    <rect x="494" y="100" width="88" height="72" rx="8" fill="#f0f9ff" stroke="#3b82f6" stroke-width="1.5"/>
    <text x="538" y="130" text-anchor="middle" font-size="16">&#x1F4CA;</text>
    <text x="538" y="148" text-anchor="middle" font-size="12" font-weight="600" fill="#0f172a">Evaluate</text>
    <text x="538" y="162" text-anchor="middle" font-size="10" fill="#64748b">Metrics</text>
  </g>

  <!-- Arrow: Evaluate → Export -->
  <line x1="582" y1="136" x2="608" y2="136" stroke="#64748b" stroke-width="1.5" marker-end="url(#arrow)"/>

  <!-- Export box -->
  <g filter="url(#shadow)">
    <rect x="614" y="100" width="72" height="72" rx="8" fill="#f0f9ff" stroke="#3b82f6" stroke-width="1.5"/>
    <text x="650" y="130" text-anchor="middle" font-size="16">&#x1F4E6;</text>
    <text x="650" y="148" text-anchor="middle" font-size="12" font-weight="600" fill="#0f172a">Export</text>
    <text x="650" y="162" text-anchor="middle" font-size="10" fill="#64748b">ONNX / TorchScript</text>
  </g>

  <!-- Arrow: Export → MLflow (down) -->
  <line x1="650" y1="172" x2="650" y2="195" stroke="#64748b" stroke-width="1.5"/>
  <line x1="650" y1="195" x2="450" y2="195" stroke="#64748b" stroke-width="1.5"/>
  <line x1="450" y1="195" x2="450" y2="215" stroke="#64748b" stroke-width="1.5" marker-end="url(#arrow)"/>
  <text x="550" y="190" text-anchor="middle" font-size="9" fill="#64748b">Log Results</text>

  <!-- Evaluate → MLflow (down, direct) -->
  <line x1="538" y1="172" x2="538" y2="195" stroke="#64748b" stroke-width="1.5"/>
  <line x1="538" y1="195" x2="480" y2="195" stroke="#64748b" stroke-width="1.5"/>

  <!-- ==================== ZONE C: MODEL MANAGEMENT ==================== -->
  <g filter="url(#shadow)">
    <rect x="296" y="222" width="320" height="82" rx="10" fill="#eff6ff" stroke="#0194E2" stroke-width="1.5"/>
    <g transform="translate(310.0,236.0) scale(1.1667,1.1667)">
    <path d="M11.883.002a12.044 12.044 0 0 0-9.326 19.463l3.668-2.694A7.573 7.573 0 0 1 12.043 4.45v2.867l6.908-5.14A12.012 12.012 0 0 0 11.883.002zm9.562 4.533L17.777 7.23a7.573 7.573 0 0 1-5.818 12.322v-2.867l-6.908 5.14a12.046 12.046 0 0 0 16.394-17.29z" fill="#0194E2"/>
  </g>
    <text x="345" y="250" font-size="14" font-weight="700" fill="#0f172a">MLflow</text>
    <text x="345" y="268" font-size="10" fill="#64748b">Track Experiments &amp; Model Registry</text>
    <text x="345" y="282" font-size="10" fill="#0194E2">Champion / Challenger</text>
    <!-- Port -->
    <rect x="560" y="232" width="46" height="18" rx="4" fill="#0194E2" opacity="0.12"/>
    <text x="583" y="245" text-anchor="middle" font-size="10" font-weight="600" fill="#0194E2">:5000</text>
  </g>

  <!-- Arrow: MLflow → PostgreSQL (down) -->
  <line x1="380" y1="304" x2="380" y2="480" stroke="#64748b" stroke-width="1.2" stroke-dasharray="4,3" marker-end="url(#arrow)"/>
  <text x="383" y="400" font-size="9" fill="#64748b" transform="rotate(-90, 383, 400)">Store Metadata (SQL)</text>

  <!-- Arrow: MLflow → MinIO (down) -->
  <line x1="480" y1="304" x2="480" y2="480" stroke="#64748b" stroke-width="1.2" stroke-dasharray="4,3" marker-end="url(#arrow)"/>
  <text x="483" y="400" font-size="9" fill="#64748b" transform="rotate(-90, 483, 400)">Store Artifacts (S3)</text>

  <!-- Arrow: MLflow → Serving (right) -->
  <line x1="616" y1="263" x2="700" y2="263" stroke="#64748b" stroke-width="1.5" marker-end="url(#arrow)"/>
  <text x="658" y="256" text-anchor="middle" font-size="9" fill="#64748b">Fetch Model (REST)</text>

  <!-- ==================== ZONE D: SERVING (right) ==================== -->
  <rect x="706" y="84" width="168" height="310" rx="12" fill="none" stroke="#009688" stroke-width="1.5" stroke-dasharray="6,4"/>
  <text x="790" y="100" text-anchor="middle" font-size="13" font-weight="700" fill="#009688">Serving</text>
  <text x="790" y="113" text-anchor="middle" font-size="10" fill="#94a3b8">Serve Predictions</text>

  <!-- User -->
  <text x="790" y="140" text-anchor="middle" font-size="22">&#x1F464;</text>
  <text x="790" y="156" text-anchor="middle" font-size="10" fill="#64748b">User</text>

  <!-- Arrow: User → Nginx -->
  <line x1="790" y1="160" x2="790" y2="178" stroke="#64748b" stroke-width="1.5" marker-end="url(#arrow)"/>

  <!-- Nginx -->
  <g filter="url(#shadow)">
    <rect x="730" y="182" width="120" height="48" rx="7" fill="#f0fdf4" stroke="#009639" stroke-width="1.3"/>
    <g transform="translate(740.0,192.0) scale(0.8333,0.8333)">
    <path d="M12 0L1.605 6v12L12 24l10.395-6V6L12 0zm6 16.59c0 .705-.646 1.29-1.529 1.29-.631 0-1.351-.255-1.801-.81l-6-7.141v6.66c0 .721-.57 1.29-1.274 1.29H7.32c-.721 0-1.29-.6-1.29-1.29V7.41c0-.705.63-1.29 1.5-1.29.646 0 1.38.255 1.83.81l5.97 7.141V7.41c0-.721.6-1.29 1.29-1.29h.075c.72 0 1.29.6 1.29 1.29v9.18H18z" fill="#009639"/>
  </g>
    <text x="765" y="205" font-size="12" font-weight="600" fill="#0f172a">Nginx</text>
    <text x="765" y="220" font-size="9" fill="#64748b">Reverse Proxy</text>
    <rect x="813" y="190" width="30" height="16" rx="3" fill="#009639" opacity="0.12"/>
    <text x="828" y="202" text-anchor="middle" font-size="9" font-weight="600" fill="#009639">:80</text>
  </g>

  <!-- Arrow: Nginx → Gunicorn -->
  <line x1="790" y1="230" x2="790" y2="244" stroke="#64748b" stroke-width="1.5" marker-end="url(#arrow)"/>

  <!-- Gunicorn -->
  <g filter="url(#shadow)">
    <rect x="730" y="248" width="120" height="48" rx="7" fill="#f7fdf4" stroke="#499848" stroke-width="1.3"/>
    <g transform="translate(740.0,256.0) scale(0.8333,0.8333)">
    <path d="M10.145 20.014c-.266-.085-.267-.122-.022-.865.244-.743.132-1.432-.32-1.974-.617-.737-.914-1.366-1.009-2.135-.08-.66-.107-.713-.376-.764-.18-.035-.43.034-1.023.281-.864.36-1.07.52-1.273.98-.108.242-.12.387-.06.667.075.342.378.892.494.893.03 0 .196.114.368.252.287.23.307.27.225.458-.176.408-.595.902-.764.902-.095 0-.482-.272-.91-.637-.836-.717-.872-.79-.96-1.965-.1-1.403.244-2.058 1.78-3.375l.964-.827.062-.5c.063-.518-.026-1.748-.177-2.427-.09-.4-.382-.783-.66-.86-.303-.084-.48.09-.712.694-.25.654-.486.882-.92.882-.27 0-.52-.173-.694-.477C4.033 9 3.96 7.691 4.035 7.002c.036-.33.038-.666.005-.745-.054-.128-.52-.405-1.62-.962a4.343 4.343 0 0 1-.518-.303 3.053 3.053 0 0 0-.49-.267C.994 4.54-.095 3.903.007 3.903c.193 0 1.01.252 1.446.445.266.118.52.215.565.215.045 0 .558.165 1.14.366.58.202 1.111.367 1.18.367.16 0 .185-.14.134-.746-.024-.275-.023-.5.002-.5s.132.053.238.118c.324.198 1.02.32 1.84.32.783.002 1.806.157 2.196.335.56.254 1.211 1.05 2.036 2.49.574 1.002 1.19 1.426 2.073 1.427.357 0 1.31-.147 2.6-.4 1.063-.21 2.467-.259 3.012-.103.665.19 1.545.7 2.27 1.314.68.576.786.704 1.204 1.468.5.912 1.05 2.207 1.54 3.622.07.202.216.54.326.753.294.568.28.603-.255.603-.58 0-.853-.092-1.233-.415-.365-.31-.46-.5-1.032-2.05-.292-.796-.577-1.273-.76-1.273-.124 0-.376.852-.376 1.273 0 .3.187.702.67 1.447.788 1.21 1.202 2.922 1.036 4.28l-.07.586-.526.022c-.825.034-.817.046-.817-1.135 0-1.257-.085-1.529-.64-2.035-.23-.21-.748-.81-1.149-1.33-.402-.52-.786-.946-.854-.946-.158 0-.236.428-.244 1.332-.006.595-.03.696-.205.88-.476.497-.81 1.403-1.016 2.754-.046.3-.085.355-.279.398-.285.064-1.075.075-1.143.015-.059-.05.044-.863.278-2.19.088-.504.185-1.18.214-1.503.053-.574-.065-1.65-.204-1.867-.058-.09-.353-.11-1.732-.116-.915-.003-1.918-.033-2.23-.066l-.565-.06v.25c0 .27.07.506.53 1.822.162.464.397 1.17.523 1.57l.227.728-.192.592a6.11 6.11 0 0 1-.348.867c-.152.266-.17.274-.595.27a2.97 2.97 0 0 1-.677-.083z" fill="#499848"/>
  </g>
    <text x="765" y="271" font-size="12" font-weight="600" fill="#0f172a">Gunicorn</text>
    <text x="765" y="286" font-size="9" fill="#64748b">WSGI Server</text>
    <rect x="813" y="256" width="30" height="16" rx="3" fill="#499848" opacity="0.12"/>
    <text x="828" y="268" text-anchor="middle" font-size="9" font-weight="600" fill="#499848">:8000</text>
  </g>

  <!-- Arrow: Gunicorn → FastAPI -->
  <line x1="790" y1="296" x2="790" y2="310" stroke="#64748b" stroke-width="1.5" marker-end="url(#arrow)"/>

  <!-- FastAPI -->
  <g filter="url(#shadow)">
    <rect x="730" y="314" width="120" height="64" rx="7" fill="#f0fdfa" stroke="#009688" stroke-width="1.3"/>
    <g transform="translate(740.0,322.0) scale(0.8333,0.8333)">
    <path d="M12 .0387C5.3729.0384.0003 5.3931 0 11.9988c-.001 6.6066 5.372 11.9628 12 11.9625 6.628.0003 12.001-5.3559 12-11.9625-.0003-6.6057-5.3729-11.9604-12-11.96m-.829 5.4153h7.55l-7.5805 5.3284h5.1828L5.279 18.5436q2.9466-6.5444 5.892-13.0896" fill="#009688"/>
  </g>
    <text x="765" y="337" font-size="12" font-weight="600" fill="#0f172a">FastAPI</text>
    <text x="765" y="352" font-size="9" fill="#64748b">Uvicorn ASGI</text>
    <text x="765" y="368" font-size="9" fill="#009688">/predict  /health  /metrics</text>
  </g>

  <!-- Arrow: FastAPI → MinIO (prediction logs) -->
  <line x1="790" y1="378" x2="790" y2="410" stroke="#64748b" stroke-width="1.2" stroke-dasharray="4,3"/>
  <line x1="790" y1="410" x2="620" y2="410" stroke="#64748b" stroke-width="1.2" stroke-dasharray="4,3"/>
  <line x1="620" y1="410" x2="620" y2="480" stroke="#64748b" stroke-width="1.2" stroke-dasharray="4,3" marker-end="url(#arrow)"/>
  <text x="710" y="422" text-anchor="middle" font-size="9" fill="#64748b">Store Prediction Logs (S3)</text>

  <!-- Arrow: FastAPI → Prometheus (right, /metrics) -->
  <line x1="850" y1="346" x2="896" y2="346" stroke="#64748b" stroke-width="1.5" marker-end="url(#arrow)"/>
  <text x="873" y="338" text-anchor="middle" font-size="8" fill="#64748b">/metrics</text>

  <!-- ==================== ZONE E: MONITORING (far right) ==================== -->
  <rect x="892" y="62" width="290" height="360" rx="12" fill="none" stroke="#E6522C" stroke-width="1.5" stroke-dasharray="6,4"/>
  <text x="1037" y="80" text-anchor="middle" font-size="13" font-weight="700" fill="#E6522C">Monitoring</text>

  <!-- Grafana -->
  <g filter="url(#shadow)">
    <rect x="960" y="90" width="155" height="56" rx="8" fill="#fff8f0" stroke="#F46800" stroke-width="1.3"/>
    <g transform="translate(975.0,100.0) scale(0.9167,0.9167)">
    <path d="M23.02 10.59a8.578 8.578 0 0 0-.862-3.034 8.911 8.911 0 0 0-1.789-2.445c.337-1.342-.413-2.505-.413-2.505-1.292-.08-2.113.4-2.416.62-.052-.02-.102-.044-.154-.064-.22-.089-.446-.172-.677-.247-.231-.073-.47-.14-.711-.197a9.867 9.867 0 0 0-.875-.161C14.557.753 12.94 0 12.94 0c-1.804 1.145-2.147 2.744-2.147 2.744l-.018.093c-.098.029-.2.057-.298.088-.138.042-.275.094-.413.143-.138.055-.275.107-.41.166a8.869 8.869 0 0 0-1.557.87l-.063-.029c-2.497-.955-4.716.195-4.716.195-.203 2.658.996 4.33 1.235 4.636a11.608 11.608 0 0 0-.607 2.635C1.636 12.677.953 15.014.953 15.014c1.926 2.214 4.171 2.351 4.171 2.351.003-.002.006-.002.006-.005.285.509.615.994.986 1.446.156.19.32.371.488.548-.704 2.009.099 3.68.099 3.68 2.144.08 3.553-.937 3.849-1.173a9.784 9.784 0 0 0 3.164.501h.08l.055-.003.107-.002.103-.005.003.002c1.01 1.44 2.788 1.646 2.788 1.646 1.264-1.332 1.337-2.653 1.337-2.94v-.058c0-.02-.003-.039-.003-.06.265-.187.52-.387.758-.6a7.875 7.875 0 0 0 1.415-1.7c1.43.083 2.437-.885 2.437-.885-.236-1.49-1.085-2.216-1.264-2.354l-.018-.013-.016-.013a.217.217 0 0 1-.031-.02c.008-.092.016-.18.02-.27.011-.162.016-.323.016-.48v-.253l-.005-.098-.008-.135-.01-.13-.013-.125-.016-.124-.018-.122a6.215 6.215 0 0 0-2.032-3.73 6.015 6.015 0 0 0-3.222-1.46 6.292 6.292 0 0 0-.85-.048l-.107.002h-.063l-.044.003-.104.008a4.777 4.777 0 0 0-3.335 1.695c-.332.4-.592.84-.768 1.297a4.594 4.594 0 0 0-.312 1.817l.003.091.013.164a3.615 3.615 0 0 0 .698 1.82 3.53 3.53 0 0 0 1.827 1.282c.33.098.66.14.971.137l.114-.002.063-.003.062-.003.099-.01.028-.003.031-.005.06-.008.112-.02.109-.024a2.634 2.634 0 0 0 .914-.415l.085-.065a.248.248 0 0 0 .039-.35.244.244 0 0 0-.309-.06l-.078.042-.283.116a2.476 2.476 0 0 1-.475.096l-.083.006-.083.002-.08-.002-.102-.006h-.012l-.024.006-.044-.006-.091-.01a2.59 2.59 0 0 1-.724-.213 2.557 2.557 0 0 1-.667-.438 2.52 2.52 0 0 1-.805-1.475 2.306 2.306 0 0 1-.029-.444l.006-.122v-.023l.002-.031.005-.06a3.163 3.163 0 0 1 1.352-2.29 3.12 3.12 0 0 1 .937-.43 2.946 2.946 0 0 1 .776-.101h.06l.07.002.045.003h.026l.07.005a4.041 4.041 0 0 1 1.635.49 3.94 3.94 0 0 1 1.602 1.662 3.77 3.77 0 0 1 .397 1.414l.005.076.003.075.002.075v.07.065l-.002.073-.008.174a6.195 6.195 0 0 1-.08.639 5.1 5.1 0 0 1-.267.927 5.31 5.31 0 0 1-.624 1.13 5.052 5.052 0 0 1-3.237 2.014 4.82 4.82 0 0 1-.649.066l-.039.003h-.287a6.607 6.607 0 0 1-1.716-.265 6.776 6.776 0 0 1-3.4-2.274 6.75 6.75 0 0 1-.746-1.15 6.616 6.616 0 0 1-.714-2.596l-.005-.083-.002-.02v-.056l-.003-.073v-.096l-.003-.104v-.07l.003-.163a8.19 8.19 0 0 1 .054-.678 8.707 8.707 0 0 1 .28-1.355c.128-.444.286-.872.473-1.277a7.04 7.04 0 0 1 1.456-2.1 5.925 5.925 0 0 1 .953-.763c.169-.111.343-.213.524-.306l.273-.135.138-.062a7.177 7.177 0 0 1 .714-.267l.145-.045.148-.041.296-.076.15-.033.15-.032.151-.028.076-.013.075-.01.153-.024.171-.023.169-.021.106-.01.073-.008.036-.003.042-.002.171-.01.086-.006h.023l.037-.003.145-.007a7.999 7.999 0 0 1 1.708.125 7.917 7.917 0 0 1 2.048.68 8.253 8.253 0 0 1 1.672 1.09l.09.077.089.078.171.159.166.16.159.164a8.671 8.671 0 0 1 1.41 1.978l.04.078.04.078.075.156.07.153.065.15a8.848 8.848 0 0 1 .45 1.34.19.19 0 0 0 .201.142.186.186 0 0 0 .172-.184c.01-.246.002-.532-.024-.856z" fill="#F46800"/>
  </g>
    <text x="1003" y="115" font-size="13" font-weight="600" fill="#0f172a">Grafana</text>
    <text x="1003" y="130" font-size="10" fill="#64748b">Overall Monitor</text>
    <rect x="1075" y="98" width="34" height="16" rx="3" fill="#F46800" opacity="0.12"/>
    <text x="1092" y="110" text-anchor="middle" font-size="9" font-weight="600" fill="#F46800">:3000</text>
  </g>

  <!-- Prometheus -->
  <g filter="url(#shadow)">
    <rect x="910" y="170" width="155" height="56" rx="8" fill="#fef3ee" stroke="#E6522C" stroke-width="1.3"/>
    <g transform="translate(925.0,180.0) scale(0.9167,0.9167)">
    <path d="M12 0C5.373 0 0 5.372 0 12c0 6.627 5.373 12 12 12s12-5.373 12-12c0-6.628-5.373-12-12-12zm0 22.46c-1.885 0-3.414-1.26-3.414-2.814h6.828c0 1.553-1.528 2.813-3.414 2.813zm5.64-3.745H6.36v-2.046h11.28v2.046zm-.04-3.098H6.391c-.037-.043-.075-.086-.111-.13-1.155-1.401-1.427-2.133-1.69-2.879-.005-.025 1.4.287 2.395.511 0 0 .513.119 1.262.255-.72-.843-1.147-1.915-1.147-3.01 0-2.406 1.845-4.508 1.18-6.207.648.053 1.34 1.367 1.387 3.422.689-.951.977-2.69.977-3.755 0-1.103.727-2.385 1.454-2.429-.648 1.069.168 1.984.894 4.256.272.854.237 2.29.447 3.201.07-1.892.395-4.652 1.595-5.605-.529 1.2.079 2.702.494 3.424.671 1.164 1.078 2.047 1.078 3.716a4.642 4.642 0 01-1.11 2.996c.792-.149 1.34-.283 1.34-.283l2.573-.502s-.374 1.538-1.81 3.019z" fill="#E6522C"/>
  </g>
    <text x="953" y="196" font-size="13" font-weight="600" fill="#0f172a">Prometheus</text>
    <text x="953" y="212" font-size="10" fill="#64748b">Metrics DB</text>
    <rect x="1028" y="178" width="30" height="16" rx="3" fill="#E6522C" opacity="0.12"/>
    <text x="1043" y="190" text-anchor="middle" font-size="9" font-weight="600" fill="#E6522C">:9090</text>
  </g>

  <!-- Arrow: Prometheus → Grafana (up) -->
  <line x1="1037" y1="170" x2="1037" y2="150" stroke="#64748b" stroke-width="1.2" marker-end="url(#arrow)"/>
  <text x="1055" y="162" font-size="8" fill="#64748b">Query</text>

  <!-- Prometheus scrapes FastAPI -->
  <text x="905" y="205" text-anchor="end" font-size="8" fill="#64748b">Scrape</text>

  <!-- Pushgateway -->
  <g filter="url(#shadow)">
    <rect x="910" y="248" width="155" height="50" rx="8" fill="#fef3ee" stroke="#E6522C" stroke-width="1"/>
    <g transform="translate(925.0,256.0) scale(0.6667,0.6667)">
    <path d="M12 0C5.373 0 0 5.372 0 12c0 6.627 5.373 12 12 12s12-5.373 12-12c0-6.628-5.373-12-12-12zm0 22.46c-1.885 0-3.414-1.26-3.414-2.814h6.828c0 1.553-1.528 2.813-3.414 2.813zm5.64-3.745H6.36v-2.046h11.28v2.046zm-.04-3.098H6.391c-.037-.043-.075-.086-.111-.13-1.155-1.401-1.427-2.133-1.69-2.879-.005-.025 1.4.287 2.395.511 0 0 .513.119 1.262.255-.72-.843-1.147-1.915-1.147-3.01 0-2.406 1.845-4.508 1.18-6.207.648.053 1.34 1.367 1.387 3.422.689-.951.977-2.69.977-3.755 0-1.103.727-2.385 1.454-2.429-.648 1.069.168 1.984.894 4.256.272.854.237 2.29.447 3.201.07-1.892.395-4.652 1.595-5.605-.529 1.2.079 2.702.494 3.424.671 1.164 1.078 2.047 1.078 3.716a4.642 4.642 0 01-1.11 2.996c.792-.149 1.34-.283 1.34-.283l2.573-.502s-.374 1.538-1.81 3.019z" fill="#E6522C"/>
  </g>
    <text x="948" y="270" font-size="12" font-weight="600" fill="#0f172a">Pushgateway</text>
    <text x="948" y="286" font-size="10" fill="#64748b">Metric Relay</text>
    <rect x="1028" y="256" width="30" height="16" rx="3" fill="#E6522C" opacity="0.12"/>
    <text x="1043" y="268" text-anchor="middle" font-size="9" font-weight="600" fill="#E6522C">:9091</text>
  </g>

  <!-- Arrow: Pushgateway → Prometheus (up) -->
  <line x1="987" y1="248" x2="987" y2="230" stroke="#64748b" stroke-width="1.2" marker-end="url(#arrow)"/>
  <text x="1000" y="242" font-size="8" fill="#64748b">Pull</text>

  <!-- Evidently -->
  <g filter="url(#shadow)">
    <rect x="910" y="320" width="155" height="56" rx="8" fill="#fef2f2" stroke="#CE3C32" stroke-width="1.3"/>
    <circle cx="933" cy="340" r="10" fill="#CE3C32"/>
    <text x="933" y="344" text-anchor="middle" font-size="10" font-weight="700" fill="#fff">E</text>
    <!-- mini bar chart -->
    <rect x="926" y="346" width="3" height="5" fill="#CE3C32" opacity="0.4"/>
    <rect x="930" y="344" width="3" height="7" fill="#CE3C32" opacity="0.6"/>
    <rect x="934" y="342" width="3" height="9" fill="#CE3C32" opacity="0.8"/>
    <text x="968" y="344" font-size="13" font-weight="600" fill="#0f172a">Evidently</text>
    <text x="968" y="362" font-size="10" fill="#64748b">Detect Drift</text>
  </g>

  <!-- Arrow: Evidently → Pushgateway (up) -->
  <line x1="987" y1="320" x2="987" y2="302" stroke="#64748b" stroke-width="1.2" marker-end="url(#arrow)"/>
  <text x="1000" y="314" font-size="8" fill="#64748b">Push Metrics</text>

  <!-- Arrow: Evidently reads from MinIO (down-left) -->
  <line x1="910" y1="365" x2="680" y2="365" stroke="#64748b" stroke-width="1.2" stroke-dasharray="4,3"/>
  <line x1="680" y1="365" x2="680" y2="480" stroke="#64748b" stroke-width="1.2" stroke-dasharray="4,3" marker-end="url(#arrow)"/>
  <text x="795" y="360" text-anchor="middle" font-size="8" fill="#64748b">Read Logs (S3)</text>

  <!-- Arrow: Drift → Prefect (orange dashed feedback loop) -->
  <path d="M 910 348 Q 240 348 240 270" fill="none" stroke="#f97316" stroke-width="1.8" stroke-dasharray="6,4" marker-end="url(#arrow-orange)"/>
  <text x="490" y="342" text-anchor="middle" font-size="10" font-weight="600" fill="#f97316">Trigger Retrain (Drift Detected)</text>

  <!-- ==================== ZONE F: INFRASTRUCTURE (bottom bar) ==================== -->
  <rect x="24" y="460" width="1155" height="174" rx="12" fill="none" stroke="#475569" stroke-width="1.5" stroke-dasharray="6,4"/>
  <text x="540" y="482" text-anchor="middle" font-size="13" font-weight="700" fill="#475569">Infrastructure</text>

  <!-- Docker Compose label -->
  <g transform="translate(600.0,468.0) scale(0.8333,0.8333)">
    <path d="M13.983 11.078h2.119a.186.186 0 00.186-.185V9.006a.186.186 0 00-.186-.186h-2.119a.185.185 0 00-.185.185v1.888c0 .102.083.185.185.185m-2.954-5.43h2.118a.186.186 0 00.186-.186V3.574a.186.186 0 00-.186-.185h-2.118a.185.185 0 00-.185.185v1.888c0 .102.082.185.185.185m0 2.716h2.118a.187.187 0 00.186-.186V6.29a.186.186 0 00-.186-.185h-2.118a.185.185 0 00-.185.185v1.887c0 .102.082.185.185.186m-2.93 0h2.12a.186.186 0 00.184-.186V6.29a.185.185 0 00-.185-.185H8.1a.185.185 0 00-.185.185v1.887c0 .102.083.185.185.186m-2.964 0h2.119a.186.186 0 00.185-.186V6.29a.185.185 0 00-.185-.185H5.136a.186.186 0 00-.186.185v1.887c0 .102.084.185.186.186m5.893 2.715h2.118a.186.186 0 00.186-.185V9.006a.186.186 0 00-.186-.186h-2.118a.185.185 0 00-.185.185v1.888c0 .102.082.185.185.185m-2.93 0h2.12a.185.185 0 00.184-.185V9.006a.185.185 0 00-.184-.186h-2.12a.185.185 0 00-.184.185v1.888c0 .102.083.185.185.185m-2.964 0h2.119a.185.185 0 00.185-.185V9.006a.185.185 0 00-.184-.186h-2.12a.186.186 0 00-.186.186v1.887c0 .102.084.185.186.185m-2.92 0h2.12a.185.185 0 00.184-.185V9.006a.185.185 0 00-.184-.186h-2.12a.185.185 0 00-.184.185v1.884c0 .102.082.185.185.185M23.763 9.89c-.065-.051-.672-.51-1.954-.51-.338.001-.676.03-1.01.087-.248-1.7-1.653-2.53-1.716-2.566l-.344-.199-.226.327c-.284.438-.49.922-.612 1.43-.23.97-.09 1.882.403 2.661-.595.332-1.55.413-1.744.42H.751a.751.751 0 00-.75.748 11.376 11.376 0 00.692 4.062c.545 1.428 1.355 2.48 2.41 3.124 1.18.723 3.1 1.137 5.275 1.137.983.003 1.963-.086 2.93-.266a12.248 12.248 0 003.823-1.389c.98-.567 1.86-1.288 2.61-2.136 1.252-1.418 1.998-2.997 2.553-4.4h.221c1.372 0 2.215-.549 2.68-1.009.309-.293.55-.65.707-1.046l.098-.288Z" fill="#2496ED"/>
  </g>
  <text x="624" y="482" font-size="11" fill="#2496ED" font-weight="600">Docker Compose</text>
  <text x="730" y="482" font-size="10" fill="#94a3b8">Container Orchestration</text>

  <!-- PostgreSQL -->
  <g filter="url(#shadow)">
    <rect x="60" y="496" width="220" height="68" rx="8" fill="#eef2ff" stroke="#4169E1" stroke-width="1.3"/>
    <g transform="translate(76.0,508.0) scale(1.0000,1.0000)">
    <path d="M23.5594 14.7228a.5269.5269 0 0 0-.0563-.1191c-.139-.2632-.4768-.3418-1.0074-.2321-1.6533.3411-2.2935.1312-2.5256-.0191 1.342-2.0482 2.445-4.522 3.0411-6.8297.2714-1.0507.7982-3.5237.1222-4.7316a1.5641 1.5641 0 0 0-.1509-.235C21.6931.9086 19.8007.0248 17.5099.0005c-1.4947-.0158-2.7705.3461-3.1161.4794a9.449 9.449 0 0 0-.5159-.0816 8.044 8.044 0 0 0-1.3114-.1278c-1.1822-.0184-2.2038.2642-3.0498.8406-.8573-.3211-4.7888-1.645-7.2219.0788C.9359 2.1526.3086 3.8733.4302 6.3043c.0409.818.5069 3.334 1.2423 5.7436.4598 1.5065.9387 2.7019 1.4334 3.582.553.9942 1.1259 1.5933 1.7143 1.7895.4474.1491 1.1327.1441 1.8581-.7279.8012-.9635 1.5903-1.8258 1.9446-2.2069.4351.2355.9064.3625 1.39.3772a.0569.0569 0 0 0 .0004.0041 11.0312 11.0312 0 0 0-.2472.3054c-.3389.4302-.4094.5197-1.5002.7443-.3102.064-1.1344.2339-1.1464.8115-.0025.1224.0329.2309.0919.3268.2269.4231.9216.6097 1.015.6331 1.3345.3335 2.5044.092 3.3714-.6787-.017 2.231.0775 4.4174.3454 5.0874.2212.5529.7618 1.9045 2.4692 1.9043.2505 0 .5263-.0291.8296-.0941 1.7819-.3821 2.5557-1.1696 2.855-2.9059.1503-.8707.4016-2.8753.5388-4.1012.0169-.0703.0357-.1207.057-.1362.0007-.0005.0697-.0471.4272.0307a.3673.3673 0 0 0 .0443.0068l.2539.0223.0149.001c.8468.0384 1.9114-.1426 2.5312-.4308.6438-.2988 1.8057-1.0323 1.5951-1.6698z" fill="#4169E1"/>
  </g>
    <text x="108" y="522" font-size="13" font-weight="600" fill="#0f172a">PostgreSQL</text>
    <rect x="190" y="508" width="34" height="16" rx="3" fill="#4169E1" opacity="0.12"/>
    <text x="207" y="520" text-anchor="middle" font-size="9" font-weight="600" fill="#4169E1">:5432</text>
    <text x="108" y="544" font-size="9" fill="#64748b">MLflow Metadata</text>
    <text x="108" y="556" font-size="9" fill="#64748b">Prefect State</text>
  </g>

  <!-- MinIO -->
  <g filter="url(#shadow)">
    <rect x="320" y="496" width="340" height="68" rx="8" fill="#fefbf3" stroke="#C72E49" stroke-width="1.3"/>
    <g transform="translate(336.0,508.0) scale(1.0000,1.0000)">
    <path d="M13.2072.006c-.6216-.0478-1.2.1943-1.6211.582a2.15 2.15 0 0 0-.0938 3.0352l3.4082 3.5507a3.042 3.042 0 0 1-.664 4.6875l-.463.2383V7.2853a15.4198 15.4198 0 0 0-8.0174 10.4862v.0176l6.5487-3.3281v7.621L13.7794 24V13.6817l.8965-.4629a4.4432 4.4432 0 0 0 1.2207-7.0292l-3.371-3.5254a.7489.7489 0 0 1 .037-1.0547.7522.7522 0 0 1 1.0567.0371l.4668.4863-.006.0059 4.0704 4.2441a.0566.0566 0 0 0 .082 0 .06.06 0 0 0 0-.0703l-3.1406-5.1425-.1484.1425.1484-.1445C14.4945.3926 13.8287.0538 13.2072.006Zm-.9024 9.8652v2.9941l-4.1523 2.1484a13.9787 13.9787 0 0 1 2.7676-3.9277 14.1784 14.1784 0 0 1 1.3847-1.2148z" fill="#C72E49"/>
  </g>
    <text x="370" y="522" font-size="13" font-weight="600" fill="#0f172a">MinIO</text>
    <rect x="416" y="508" width="34" height="16" rx="3" fill="#C72E49" opacity="0.12"/>
    <text x="433" y="520" text-anchor="middle" font-size="9" font-weight="600" fill="#C72E49">:9000</text>
    <text x="370" y="544" font-size="9" fill="#64748b">mlflow-artifacts/  prediction-logs/  drift-reports/</text>
    <text x="370" y="556" font-size="9" fill="#64748b">S3-compatible Object Storage</text>
  </g>

  <!-- Redis -->
  <g filter="url(#shadow)">
    <rect x="700" y="496" width="200" height="68" rx="8" fill="#fef2f2" stroke="#FF4438" stroke-width="1.3"/>
    <g transform="translate(716.0,508.0) scale(1.0000,1.0000)">
    <path d="M22.71 13.145c-1.66 2.092-3.452 4.483-7.038 4.483-3.203 0-4.397-2.825-4.48-5.12.701 1.484 2.073 2.685 4.214 2.63 4.117-.133 6.94-3.852 6.94-7.239 0-4.05-3.022-6.972-8.268-6.972-3.752 0-8.4 1.428-11.455 3.685C2.59 6.937 3.885 9.958 4.35 9.626c2.648-1.904 4.748-3.13 6.784-3.744C8.12 9.244.886 17.05 0 18.425c.1 1.261 1.66 4.648 2.424 4.648.232 0 .431-.133.664-.365a100.49 100.49 0 0 0 5.54-6.765c.222 3.104 1.748 6.898 6.014 6.898 3.819 0 7.604-2.756 9.33-8.965.2-.764-.73-1.361-1.261-.73zm-4.349-5.013c0 1.959-1.926 2.922-3.685 2.922-.941 0-1.664-.247-2.235-.568 1.051-1.592 2.092-3.225 3.21-4.973 1.972.334 2.71 1.43 2.71 2.619z" fill="#FF4438"/>
  </g>
    <text x="748" y="522" font-size="13" font-weight="600" fill="#0f172a">Redis</text>
    <rect x="800" y="508" width="34" height="16" rx="3" fill="#FF4438" opacity="0.12"/>
    <text x="817" y="520" text-anchor="middle" font-size="9" font-weight="600" fill="#FF4438">:6379</text>
    <text x="748" y="544" font-size="9" fill="#64748b">Task Queue</text>
    <text x="748" y="556" font-size="9" fill="#64748b">Prefect Worker Cache</text>
  </g>

  <!-- Connection lines: Infrastructure → Services (going UP) -->
  <!-- PostgreSQL → Prefect (up) -->
  <line x1="170" y1="496" x2="170" y2="260" stroke="#4169E1" stroke-width="1" stroke-dasharray="3,3" opacity="0.4"/>
  <line x1="170" y1="260" x2="196" y2="260" stroke="#4169E1" stroke-width="1" stroke-dasharray="3,3" opacity="0.4"/>

  <!-- Redis → Prefect (up) -->
  <line x1="800" y1="496" x2="800" y2="440" stroke="#FF4438" stroke-width="1" stroke-dasharray="3,3" opacity="0.4"/>
  <line x1="800" y1="440" x2="440" y2="440" stroke="#FF4438" stroke-width="1" stroke-dasharray="3,3" opacity="0.4"/>
  <line x1="440" y1="440" x2="440" y2="270" stroke="#FF4438" stroke-width="1" stroke-dasharray="3,3" opacity="0.4"/>

  <!-- Layer labels (small, at bottom-right) -->
  <g opacity="0.5">
    <text x="1130" y="614" text-anchor="end" font-size="8" fill="#94a3b8">Layer 1: Infrastructure</text>
    <text x="1130" y="600" text-anchor="end" font-size="8" fill="#94a3b8">Layers 2-6: Application</text>
  </g>

  <!-- Legend -->
  <g transform="translate(940, 596)">
    <line x1="0" y1="0" x2="20" y2="0" stroke="#64748b" stroke-width="1.5" marker-end="url(#arrow)"/>
    <text x="24" y="4" font-size="8" fill="#64748b">Data flow</text>
    <line x1="72" y1="0" x2="92" y2="0" stroke="#64748b" stroke-width="1.2" stroke-dasharray="4,3"/>
    <text x="96" y="4" font-size="8" fill="#64748b">Storage I/O</text>
    <line x1="148" y1="0" x2="168" y2="0" stroke="#f97316" stroke-width="1.8" stroke-dasharray="6,4"/>
    <text x="172" y="4" font-size="8" fill="#f97316">Feedback loop</text>
  </g>

</svg>
